# 3ds Max Wavefront OBJ Exporter v0.99 - (c)2007 guruware
# 创建的文件:06.01.2023 14:34:50

#mtllib 小桩.mtl

#
# object Box002
#

v  -0.3673 0.0124 1.3981
v  -0.3841 0.0124 1.6342
v  -0.4344 0.0124 1.8273
v  -0.5182 0.0124 1.9776
v  -0.6355 0.0124 2.0849
v  -0.7864 0.0124 2.1493
v  -0.9704 0.0124 2.1707
v  -1.1544 0.0124 2.1493
v  -1.3052 0.0124 2.0849
v  -1.4226 0.0124 1.9776
v  -1.5064 0.0124 1.8273
v  -1.5567 0.0124 1.6342
v  -1.5734 0.0124 1.3981
v  -1.5734 0.0124 0.0000
v  -0.3673 0.0124 0.0000
v  -0.7941 2.1628 2.1005
v  -0.6530 2.1628 2.0403
v  -0.5457 2.1628 1.9423
v  -0.4692 2.1628 1.8050
v  -0.4222 2.1628 1.6243
v  -0.4061 2.1628 1.3959
v  -0.4061 2.1628 -0.0011
v  -1.5346 2.1628 0.0011
v  -1.5346 2.1628 1.3981
v  -1.5186 2.1628 1.6243
v  -1.4716 2.1628 1.8050
v  -1.3950 2.1628 1.9423
v  -1.2878 2.1628 2.0403
v  -1.1467 2.1628 2.1005
v  -0.9687 2.1628 2.1211
v  -0.3673 2.1131 0.0000
v  -0.3673 2.1131 1.3981
v  -1.5734 0.0124 -1.3981
v  -1.5734 2.1131 0.0000
v  -1.5734 2.1131 -1.3981
v  -0.3673 2.1131 -1.3981
v  -0.3673 0.0124 -1.3981
v  -0.3841 0.0124 -1.6342
v  -0.3841 2.1131 -1.6342
v  -0.4344 0.0124 -1.8273
v  -0.4344 2.1131 -1.8273
v  -0.5182 0.0124 -1.9776
v  -0.5182 2.1131 -1.9776
v  -0.3841 2.1131 1.6342
v  -0.4344 2.1131 1.8273
v  -0.5182 2.1131 1.9776
v  -0.9704 2.1131 -2.1707
v  -0.9704 0.0124 -2.1707
v  -1.1544 0.0124 -2.1493
v  -1.1544 2.1131 -2.1493
v  -1.3052 0.0124 -2.0849
v  -1.3052 2.1131 -2.0849
v  -1.4226 0.0124 -1.9776
v  -1.4226 2.1131 -1.9776
v  -0.7864 2.1131 -2.1493
v  -0.7864 0.0124 -2.1493
v  -0.6355 2.1131 -2.0849
v  -0.6355 0.0124 -2.0849
v  -1.5734 2.1131 1.3981
v  -1.5567 2.1131 1.6342
v  -1.5064 2.1131 1.8273
v  -1.4226 2.1131 1.9776
v  -1.5567 2.1131 -1.6342
v  -1.5567 0.0124 -1.6342
v  -1.5064 2.1131 -1.8273
v  -1.5064 0.0124 -1.8273
v  -0.9704 2.1131 2.1707
v  -0.7864 2.1131 2.1493
v  -0.6355 2.1131 2.0849
v  -1.1544 2.1131 2.1493
v  -1.3052 2.1131 2.0849
v  -0.4061 2.1628 -1.3981
v  -0.4222 2.1628 -1.6243
v  -0.4692 2.1628 -1.8050
v  -0.5457 2.1628 -1.9423
v  -0.6530 2.1628 -2.0403
v  -0.7941 2.1628 -2.1005
v  -0.9721 2.1628 -2.1211
v  -1.1467 2.1628 -2.1005
v  -1.2878 2.1628 -2.0403
v  -1.3950 2.1628 -1.9423
v  -1.4716 2.1628 -1.8050
v  -1.5186 2.1628 -1.6243
v  -1.5347 2.1628 -1.3959
v  0.2204 0.3376 1.7361
v  0.4812 0.3376 1.6788
v  0.6899 0.3376 1.5642
v  0.8464 0.3376 1.3923
v  0.9507 0.3376 1.1631
v  1.0029 0.3376 0.8765
v  1.0094 0.3376 0.4963
v  0.1795 0.3376 0.4963
v  -0.9704 0.3376 1.7361
v  1.5734 0.0124 1.1410
v  1.5669 0.0124 1.3058
v  1.5147 0.0124 1.5923
v  1.4104 0.0124 1.8215
v  1.2539 0.0124 1.9934
v  -0.9704 0.0124 2.1654
v  0.7844 0.0124 2.1654
v  1.0452 0.0124 2.1080
v  -0.9704 0.0124 -2.1654
v  0.7844 0.0124 -2.1654
v  1.0452 0.0124 -2.1080
v  1.2539 0.0124 -1.9934
v  1.4104 0.0124 -1.8215
v  1.5147 0.0124 -1.5923
v  1.5669 0.0124 -1.3058
v  1.5734 0.0124 -1.1410
v  1.5734 0.0124 -0.0000
v  -0.9704 0.0124 0.0000
v  0.2204 0.3376 -1.7361
v  -0.9704 0.3376 -1.7361
v  0.1795 0.3376 -0.4963
v  1.0094 0.3376 -0.4963
v  1.0029 0.3376 -0.8765
v  0.9507 0.3376 -1.1631
v  0.8464 0.3376 -1.3923
v  0.6899 0.3376 -1.5642
v  0.4812 0.3376 -1.6788
v  -0.9704 0.3376 0.0000
v  -0.0465 0.3376 0.0000
v  -0.0465 0.3376 -0.2644
v  -0.0465 0.3376 0.2644
v  1.4903 0.0603 0.4963
v  0.1795 0.0603 0.4963
v  0.1795 0.0603 -0.4963
v  1.4903 0.0603 -0.4963
v  -0.0465 0.0603 0.2644
v  -0.0465 0.0603 0.0000
v  -0.0465 0.0603 -0.2644
v  0.0100 0.0603 0.4383
v  1.4903 0.0603 -0.0000
v  0.0100 0.0603 -0.4383
v  0.7726 0.2481 -0.8860
v  0.4804 0.2481 -0.8860
v  0.4804 0.2481 -1.0136
v  0.7726 0.2481 -1.0136
v  0.7403 0.4524 -0.8860
v  0.7403 0.4524 -1.0136
v  0.5127 0.4524 -1.0136
v  0.5127 0.4524 -0.8860
v  0.7726 0.4192 -1.0136
v  0.7726 0.4192 -0.8860
v  0.4804 0.4192 -1.0136
v  0.4804 0.4192 -0.8860
v  0.7726 0.2481 1.0111
v  0.4804 0.2481 1.0111
v  0.4804 0.2481 0.8835
v  0.7726 0.2481 0.8835
v  0.7403 0.4524 1.0111
v  0.7403 0.4524 0.8835
v  0.5127 0.4524 0.8835
v  0.5127 0.4524 1.0111
v  0.7726 0.4192 0.8835
v  0.7726 0.4192 1.0111
v  0.4804 0.4192 0.8835
v  0.4804 0.4192 1.0111
v  0.0100 0.3376 0.4383
v  0.0100 0.3376 -0.4383
# 160 vertices

vn 0.7146 -0.6990 0.0260
vn 0.7170 -0.6866 0.1207
vn 0.6788 -0.6792 0.2792
vn 0.5748 -0.6727 0.4659
vn 0.3944 -0.6715 0.6273
vn 0.1848 -0.6769 0.7125
vn 0.0000 -0.6826 0.7308
vn -0.1848 -0.6769 0.7125
vn -0.3944 -0.6715 0.6273
vn -0.5748 -0.6727 0.4659
vn -0.6788 -0.6792 0.2792
vn -0.7170 -0.6866 0.1207
vn -0.7146 -0.6990 0.0260
vn -0.7071 -0.7071 0.0000
vn 0.7071 -0.7071 -0.0000
vn 0.1065 0.9105 0.3995
vn 0.2336 0.9032 0.3601
vn 0.3499 0.8957 0.2742
vn 0.4196 0.8921 0.1677
vn 0.4455 0.8923 0.0733
vn 0.4406 0.8976 0.0158
vn 0.4330 0.9014 -0.0000
vn -0.4330 0.9014 0.0000
vn -0.4408 0.8974 0.0163
vn -0.4454 0.8923 0.0734
vn -0.4196 0.8921 0.1677
vn -0.3499 0.8957 0.2742
vn -0.2336 0.9032 0.3601
vn -0.1061 0.9104 0.3998
vn 0.0012 0.9139 0.4060
vn 0.9436 0.3312 -0.0000
vn 0.9437 0.3290 0.0344
vn -0.7146 -0.6990 -0.0260
vn -0.9436 0.3312 0.0000
vn -0.9437 0.3290 -0.0344
vn 0.9438 0.3288 -0.0341
vn 0.7146 -0.6990 -0.0260
vn 0.7170 -0.6866 -0.1207
vn 0.9316 0.3274 -0.1580
vn 0.6788 -0.6792 -0.2792
vn 0.8709 0.3326 -0.3619
vn 0.5748 -0.6727 -0.4659
vn 0.7261 0.3443 -0.5952
vn 0.9316 0.3274 0.1580
vn 0.8709 0.3326 0.3619
vn 0.7261 0.3443 0.5952
vn 0.0006 0.3731 -0.9278
vn -0.0000 -0.6826 -0.7308
vn -0.1848 -0.6769 -0.7125
vn -0.2314 0.3691 -0.9001
vn -0.3944 -0.6715 -0.6273
vn -0.4931 0.3585 -0.7927
vn -0.5748 -0.6727 -0.4659
vn -0.7261 0.3443 -0.5952
vn 0.2314 0.3691 -0.9001
vn 0.1848 -0.6769 -0.7125
vn 0.4931 0.3585 -0.7927
vn 0.3944 -0.6715 -0.6273
vn -0.9438 0.3288 0.0341
vn -0.9316 0.3274 0.1580
vn -0.8709 0.3326 0.3619
vn -0.7261 0.3443 0.5952
vn -0.9316 0.3274 -0.1580
vn -0.7170 -0.6866 -0.1207
vn -0.8709 0.3326 -0.3619
vn -0.6788 -0.6792 -0.2792
vn -0.0006 0.3731 0.9278
vn 0.2314 0.3691 0.9001
vn 0.4931 0.3585 0.7927
vn -0.2314 0.3691 0.9001
vn -0.4931 0.3585 0.7927
vn 0.4408 0.8974 -0.0163
vn 0.4454 0.8923 -0.0734
vn 0.4196 0.8921 -0.1677
vn 0.3499 0.8957 -0.2742
vn 0.2336 0.9032 -0.3601
vn 0.1061 0.9104 -0.3998
vn -0.0012 0.9139 -0.4060
vn -0.1065 0.9105 -0.3995
vn -0.2336 0.9032 -0.3601
vn -0.3499 0.8957 -0.2742
vn -0.4196 0.8921 -0.1677
vn -0.4455 0.8923 -0.0733
vn -0.4406 0.8976 -0.0158
vn 0.0168 0.9468 0.3213
vn 0.0805 0.9619 0.2613
vn 0.1411 0.9705 0.1954
vn 0.1918 0.9730 0.1282
vn 0.2297 0.9709 0.0671
vn 0.2544 0.9669 0.0187
vn 0.1922 0.7322 -0.6534
vn 0.1069 0.7450 -0.6584
vn 0.0000 0.9479 0.3186
vn 0.9694 -0.2437 0.0290
vn 0.9654 -0.2263 0.1293
vn 0.9254 -0.2042 0.3193
vn 0.8112 -0.1930 0.5520
vn 0.6154 -0.1977 0.7630
vn 0.0000 -0.3186 0.9479
vn 0.1454 -0.2633 0.9537
vn 0.3737 -0.2217 0.9007
vn -0.0000 -0.3186 -0.9479
vn 0.1454 -0.2633 -0.9537
vn 0.3737 -0.2217 -0.9007
vn 0.6154 -0.1977 -0.7630
vn 0.8112 -0.1930 -0.5520
vn 0.9254 -0.2042 -0.3193
vn 0.9654 -0.2263 -0.1293
vn 0.9694 -0.2437 -0.0290
vn 0.9674 -0.2533 -0.0000
vn -0.0000 -1.0000 0.0000
vn 0.0168 0.9468 -0.3213
vn 0.0000 0.9479 -0.3186
vn 0.1069 0.7450 0.6584
vn 0.1922 0.7322 0.6534
vn 0.2544 0.9669 -0.0187
vn 0.2297 0.9709 -0.0671
vn 0.1918 0.9730 -0.1282
vn 0.1411 0.9705 -0.1954
vn 0.0805 0.9619 -0.2613
vn 0.0000 1.0000 -0.0000
vn 0.7071 0.7071 -0.0000
vn 0.6584 0.7450 0.1069
vn 0.6584 0.7450 -0.1069
vn 0.3754 0.9231 -0.0833
vn 0.1185 0.6728 -0.7303
vn 0.1185 0.6728 0.7303
vn 0.3754 0.9231 0.0833
vn 0.7303 0.6728 -0.1185
vn 0.7303 0.6728 0.1185
vn 0.5554 0.6189 -0.5554
vn 0.2533 0.9674 -0.0000
vn 0.5554 0.6189 0.5554
vn 0.5774 -0.5774 0.5774
vn -0.5774 -0.5774 0.5774
vn -0.5774 -0.5774 -0.5774
vn 0.5774 -0.5774 -0.5774
vn 0.2971 0.7173 0.6303
vn 0.2971 0.7173 -0.6303
vn -0.2971 0.7173 -0.6303
vn -0.2971 0.7173 0.6303
vn 0.7173 0.2971 -0.6303
vn 0.7173 0.2971 0.6303
vn -0.7173 0.2971 -0.6303
vn -0.7173 0.2971 0.6303
vn 0.4018 0.8229 -0.4018
vn 0.4018 0.8229 0.4018
# 147 vertex normals

vt 0.8024 0.0000 0.0000
vt 0.8683 0.0000 0.0000
vt 0.9341 0.0000 0.0000
vt 1.0000 0.0000 0.0000
vt 1.0000 0.1668 0.0000
vt 1.0000 0.3335 0.0000
vt 1.0000 0.5000 0.0000
vt 1.0000 0.6665 0.0000
vt 1.0000 0.8332 0.0000
vt 1.0000 1.0000 0.0000
vt 0.9341 1.0000 0.0000
vt 0.8683 1.0000 0.0000
vt 0.8024 1.0000 0.0000
vt 0.5000 1.0000 0.0000
vt 0.5000 0.0000 0.0000
vt 0.0000 0.3083 0.0000
vt 0.0000 0.1524 0.0000
vt 0.1082 0.2740 0.0000
vt 0.0602 0.0000 0.0000
vt 0.1218 0.0000 0.0000
vt 0.1854 0.0000 0.0000
vt 0.4939 0.0000 0.0000
vt 0.5061 1.0000 0.0000
vt 0.1976 1.0000 0.0000
vt 0.1218 1.0000 0.0000
vt 0.0602 1.0000 0.0000
vt 0.0000 1.0000 0.0000
vt 0.0000 0.8476 0.0000
vt 0.0000 0.6917 0.0000
vt 0.0127 0.4985 0.0000
vt 0.1976 0.0000 0.0000
vt 0.5000 0.9769 0.0000
vt 0.1976 0.9769 0.0000
vt 0.8024 0.9769 0.0000
vt 0.8683 0.9769 0.0000
vt 0.9341 0.9769 0.0000
vt 1.0000 0.9769 0.0000
vt 0.1317 0.9769 0.0000
vt 0.1317 0.0000 0.0000
vt 0.0659 0.9769 0.0000
vt 0.0659 0.0000 0.0000
vt 0.0000 0.9769 0.0000
vt 0.0000 0.0000 0.0000
vt 0.6665 0.0000 0.0000
vt 0.6665 0.9769 0.0000
vt 0.8332 0.0000 0.0000
vt 0.8332 0.9769 0.0000
vt 0.3335 0.9769 0.0000
vt 0.3335 0.0000 0.0000
vt 0.1668 0.9769 0.0000
vt 0.1668 0.0000 0.0000
vt 0.0000 0.5000 0.0000
vt 0.0000 0.3335 0.0000
vt 0.0000 0.1668 0.0000
vt 0.8782 0.0000 0.0000
vt 0.9398 0.0000 0.0000
vt 1.0000 -0.0000 0.0000
vt 1.0000 0.1524 0.0000
vt 1.0000 0.3083 0.0000
vt 1.0000 0.5015 0.0000
vt 1.0000 0.6917 0.0000
vt 1.0000 0.8476 0.0000
vt 0.8918 0.7260 0.0000
vt 0.9398 1.0000 0.0000
vt 0.8782 1.0000 0.0000
vt 0.8146 1.0000 0.0000
vt 0.1317 1.0000 0.0000
vt 0.0659 1.0000 0.0000
vt 0.0000 0.8332 0.0000
vt 0.0000 0.6665 0.0000
vt 0.0000 0.4169 0.0000
vt 0.0000 0.2502 0.0000
vt 0.0000 0.0834 0.0000
vt 0.0329 0.0000 0.0000
vt 0.0988 0.0000 0.0000
vt 0.1647 0.0000 0.0000
vt 0.2732 0.0000 0.0000
vt 0.2641 0.1965 0.0000
vt 0.2407 0.2882 0.0000
vt 0.3488 0.0000 0.0000
vt 0.2732 1.0000 0.0000
vt 0.1647 1.0000 0.0000
vt 0.0988 1.0000 0.0000
vt 0.0329 1.0000 0.0000
vt -0.0320 1.0224 0.0000
vt -0.0320 0.0224 0.0000
vt 0.5831 0.0000 0.0000
vt 0.5831 1.0000 0.0000
vt 0.7498 0.0000 0.0000
vt 0.7498 1.0000 0.0000
vt 0.9166 0.0000 0.0000
vt 0.9166 1.0000 0.0000
vt 0.8750 0.5000 0.0000
vt 1.0000 0.4169 0.0000
vt 1.0000 0.2502 0.0000
vt 1.0000 0.0834 0.0000
vt 0.9671 0.0000 0.0000
vt 0.9012 0.0000 0.0000
vt 0.8353 0.0000 0.0000
vt 0.5000 0.5000 0.0000
vt 0.1250 0.5000 0.0000
vt 0.6512 0.0000 0.0000
vt 0.5000 0.2500 0.0000
vt 0.3730 0.2500 0.0000
vt 0.2633 0.2132 0.0000
vt 0.3110 0.5000 0.0000
vt 0.2616 0.2500 0.0000
vt 0.0000 0.1106 0.0000
vt 1.0000 0.1106 0.0000
vt 1.0000 0.8894 0.0000
vt 0.0000 0.8894 0.0000
vt 1.0000 0.8378 0.0000
vt 0.0000 0.8378 0.0000
vt 0.8894 1.0000 0.0000
vt 0.1106 1.0000 0.0000
# 115 texture coords

o Box002
g Box002
usemtl cat_lambert66SG
s 1
f 1/1/1 2/2/2 3/3/3 4/4/4 5/5/5 6/6/6 7/7/7 8/8/8 9/9/9 10/10/10 11/11/11 12/12/12 13/13/13 14/14/14 15/15/15 
f 16/16/16 17/17/17 18/18/18 19/19/19 20/20/20 21/21/21 22/22/22 23/23/23 24/24/24 25/25/25 26/26/26 27/27/27 28/28/28 29/29/29 30/30/30 
s 2
f 1/31/1 15/15/15 31/32/31 32/33/32 
f 33/31/33 14/15/14 34/32/34 35/33/35 
f 36/34/36 37/1/37 38/2/38 39/35/39 
f 39/35/39 38/2/38 40/3/40 41/36/41 
f 41/36/41 40/3/40 42/4/42 43/37/43 
f 1/31/1 32/33/32 44/38/44 2/39/2 
f 2/39/2 44/38/44 45/40/45 3/41/3 
f 3/41/3 45/40/45 46/42/46 4/43/4 
f 47/32/47 48/15/48 49/44/49 50/45/50 
f 50/45/50 49/44/49 51/46/51 52/47/52 
f 52/47/52 51/46/51 53/4/53 54/37/54 
f 48/15/48 47/32/47 55/48/55 56/49/56 
f 56/49/56 55/48/55 57/50/57 58/51/58 
f 58/51/58 57/50/57 43/42/43 42/43/42 
f 59/34/59 13/1/13 12/2/12 60/35/60 
f 60/35/60 12/2/12 11/3/11 61/36/61 
f 61/36/61 11/3/11 10/4/10 62/37/62 
f 33/31/33 35/33/35 63/38/63 64/39/64 
f 64/39/64 63/38/63 65/40/65 66/41/66 
f 66/41/66 65/40/65 54/42/54 53/43/53 
f 67/32/67 7/15/7 6/44/6 68/45/68 
f 68/45/68 6/44/6 5/46/5 69/47/69 
f 69/47/69 5/46/5 4/4/4 46/37/46 
f 7/15/7 67/32/67 70/48/70 8/49/8 
f 8/49/8 70/48/70 71/50/71 9/51/9 
f 9/51/9 71/50/71 62/42/62 10/43/10 
s 4
f 16/16/16 30/30/30 67/52/67 68/53/68 
f 16/16/16 68/53/68 69/54/69 17/17/17 
f 17/17/17 69/54/69 46/43/46 18/18/18 
f 18/18/18 46/43/46 45/41/45 19/19/19 
f 19/19/19 45/41/45 44/39/44 20/20/20 
f 20/20/20 44/39/44 32/31/32 21/21/21 
f 72/1/72 22/22/22 31/15/31 36/1/36 
f 72/1/72 36/1/36 39/2/39 73/55/73 
f 73/55/73 39/2/39 41/3/41 74/56/74 
f 74/56/74 41/3/41 43/4/43 75/57/75 
f 75/57/75 43/4/43 57/5/57 76/58/76 
f 76/58/76 57/5/57 55/6/55 77/59/77 
f 77/59/77 55/6/55 47/7/47 78/60/78 
f 78/60/78 47/7/47 50/8/50 79/61/79 
f 79/61/79 50/8/50 52/9/52 80/62/80 
f 80/62/80 52/9/52 54/10/54 81/63/81 
f 81/63/81 54/10/54 65/11/65 82/64/82 
f 82/64/82 65/11/65 63/12/63 83/65/83 
f 83/65/83 63/12/63 35/13/35 84/66/84 
f 24/24/24 23/23/23 34/14/34 59/24/59 
f 24/24/24 59/24/59 60/67/60 25/25/25 
f 25/25/25 60/67/60 61/68/61 26/26/26 
f 26/26/26 61/68/61 62/27/62 27/27/27 
f 27/27/27 62/27/62 71/69/71 28/28/28 
f 28/28/28 71/69/71 70/70/70 29/29/29 
f 29/29/29 70/70/70 67/52/67 30/30/30 
s off
f 85/71/85 86/72/86 87/73/87 88/74/88 89/75/89 90/76/90 91/77/91 92/78/92 93/79/93 
s 1
f 94/80/94 91/81/91 90/82/90 95/76/95 
f 95/76/95 90/82/90 89/83/89 96/75/96 
f 96/75/96 89/83/89 88/84/88 97/74/97 
f 97/74/97 88/84/88 87/85/87 98/86/98 
f 93/14/93 99/15/99 100/87/100 85/88/85 
f 85/88/85 100/87/100 101/89/101 86/90/86 
f 86/90/86 101/89/101 98/91/98 87/92/87 
s 2
f 102/93/102 103/94/103 104/95/104 105/96/105 106/97/106 107/98/107 108/99/108 109/1/109 110/15/110 111/100/111 
s off
f 112/71/112 113/101/113 114/78/114 115/77/115 116/76/116 117/75/117 118/74/118 119/73/119 120/72/120 
s 1
f 109/31/109 108/76/108 116/82/116 115/81/115 
f 108/76/108 107/75/107 117/83/117 116/82/116 
f 107/75/107 106/74/106 118/84/118 117/83/117 
f 106/74/106 105/86/105 119/85/119 118/84/118 
f 113/14/113 112/88/112 103/87/103 102/15/102 
f 112/88/112 120/90/120 104/89/104 103/87/103 
f 120/90/120 119/92/119 105/91/105 104/89/104 
s 2
f 99/93/99 111/100/111 110/15/110 94/102/94 95/99/95 96/98/96 97/97/97 98/96/98 101/95/101 100/94/100 
s off
f 113/101/113 121/100/121 122/103/122 123/104/123 
f 122/103/122 121/100/121 93/79/93 124/104/124 
s 2
f 92/78/92 91/77/91 125/77/125 126/105/126 
f 115/77/115 114/78/114 127/105/127 128/77/128 
s 4
f 122/103/122 124/104/124 129/104/129 130/103/122 
f 123/104/123 122/103/122 130/103/122 131/104/130 
s 1
f 125/106/125 91/81/91 94/80/94 
f 109/31/109 115/81/115 128/106/128 
f 130/103/122 129/104/129 132/107/131 126/107/126 125/107/125 133/103/132 
f 127/107/127 134/107/133 131/104/130 130/103/122 133/103/132 128/107/128 
f 133/103/132 125/107/125 94/107/94 110/103/110 
f 128/107/128 133/103/132 110/103/110 109/107/109 
f 135/4/134 136/10/135 137/27/136 138/43/137 
f 139/108/138 140/109/139 141/110/140 142/111/141 
s 2
f 135/43/134 138/4/137 143/112/142 144/113/143 
s 4
f 138/43/137 137/4/136 145/112/144 141/114/140 140/115/139 143/113/142 
s 2
f 137/43/136 136/4/135 146/112/145 145/113/144 
s 4
f 136/43/135 135/4/134 144/112/143 139/114/138 142/115/141 146/113/145 
s 8
f 140/109/139 139/108/138 144/43/143 143/4/142 
f 142/111/141 141/110/140 145/10/144 146/27/145 
s 1
f 147/4/134 148/10/135 149/27/136 150/43/137 
f 151/108/138 152/109/139 153/110/140 154/111/141 
s 2
f 147/43/134 150/4/137 155/112/142 156/113/143 
s 4
f 150/43/137 149/4/136 157/112/144 153/114/140 152/115/139 155/113/142 
s 2
f 149/43/136 148/4/135 158/112/145 157/113/144 
s 4
f 148/43/135 147/4/134 156/112/143 151/114/138 154/115/141 158/113/145 
s 8
f 152/109/139 151/108/138 156/43/143 155/4/142 
f 154/111/141 153/110/140 157/10/144 158/27/145 
s off
f 92/78/92 159/107/146 93/79/93 
f 113/101/113 160/107/147 114/78/114 
f 123/104/123 160/107/147 113/101/113 
f 93/79/93 159/107/146 124/104/124 
s 2
f 92/78/92 126/105/126 132/107/131 159/107/146 
f 127/105/127 114/78/114 160/107/147 134/107/133 
s 4
f 129/104/129 124/104/124 159/107/146 132/107/131 
f 123/104/123 131/104/130 134/107/133 160/107/147 
s 1
f 14/14/14 33/24/33 64/67/64 66/68/66 53/27/53 51/69/51 49/70/49 48/52/48 56/53/56 58/54/58 42/43/42 40/41/40 38/39/38 37/31/37 15/15/15 
f 22/22/22 72/1/72 73/55/73 74/56/74 75/57/75 76/58/76 77/59/77 78/60/78 79/61/79 80/62/80 81/63/81 82/64/82 83/65/83 84/66/84 23/23/23 
s 2
f 15/15/15 37/1/37 36/34/36 31/32/31 
f 14/15/14 13/1/13 59/34/59 34/32/34 
s 4
f 22/22/22 21/21/21 32/31/32 31/15/31 
f 23/23/23 84/66/84 35/13/35 34/14/34 
# 108 polygons - 6 triangles